<svg xmlns="http://www.w3.org/2000/svg" xmlns:xlink="http://www.w3.org/1999/xlink" version="1.1" x="0px" y="0px" viewBox="0 0 100 125" style="enable-background:new 0 0 100 100;" xml:space="preserve"><path d="M5.3,15.3"/><path d="M84.9,13.9H15.1c-7.6,0-13.8,6.9-13.8,15.3v42.4c0,8.4,6.2,15.3,13.8,15.3h69.7c7.6,0,13.8-6.9,13.8-15.3  V29.2C98.7,20.7,92.5,13.9,84.9,13.9z M15.1,19.3h69.7c4.6,0,8.4,4.4,8.4,9.9v2.5H6.8v-2.5C6.8,23.7,10.5,19.3,15.1,19.3z   M84.9,81.4H15.1c-4.6,0-8.4-4.4-8.4-9.9V37.2h86.5v34.4C93.2,77,89.5,81.4,84.9,81.4z"/><circle cx="60.1" cy="25.4" r="3.4"/><circle cx="70.6" cy="25.4" r="3.4"/><circle cx="81.7" cy="25.4" r="3.4"/><polygon points="44.8,48 41.6,51.2 38.5,48 35.9,50.7 39,53.8 35.9,56.9 38.5,59.6 41.6,56.4 44.8,59.6 47.4,56.9   44.2,53.8 47.4,50.7 "/><polygon points="64.1,50.7 61.5,48 58.4,51.2 55.2,48 52.6,50.7 55.8,53.8 52.6,56.9 55.2,59.6 58.4,56.4 61.5,59.6   64.1,56.9 61,53.8 "/><rect x="36.7" y="66.1" width="26.5" height="3.7"/><text x="0" y="115" fill="#000000" font-size="5px" font-weight="bold" font-family="'Helvetica Neue', Helvetica, Arial-Unicode, Arial, Sans-serif">Created by Aneeque Ahmed</text><text x="0" y="120" fill="#000000" font-size="5px" font-weight="bold" font-family="'Helvetica Neue', Helvetica, Arial-Unicode, Arial, Sans-serif">from the Noun Project</text></svg>